<?xml version="1.0" standalone="no"?><!DOCTYPE svg PUBLIC "-//W3C//DTD SVG 1.1//EN" "http://www.w3.org/Graphics/SVG/1.1/DTD/svg11.dtd"><svg class="icon" width="200px" height="200.00px" viewBox="0 0 1024 1024" version="1.1" xmlns="http://www.w3.org/2000/svg"><path d="M389.9 958.5c-0.9 0-1.7 0-2.6-0.1-11.4-1-21.3-8.4-25.4-19.1L82 210l56-21.5 257.9 671.8 147.7-245.9 51.4 30.9-179.4 298.6c-5.4 9.1-15.2 14.6-25.7 14.6z" fill="#0063b1" /><path d="M611.1 597.5c-7.8 0-15.4-3-21.2-8.8L117.7 116.6c-10-10-11.7-25.6-4-37.5s22.6-16.8 35.8-11.8l770.2 292.1c10.7 4.1 18.2 13.9 19.2 25.3s-4.5 22.5-14.4 28.4l-298 180c-4.7 3-10.1 4.4-15.4 4.4zM259 173l356.7 356.7 225.2-136L259 173z" fill="#0063b1" /></svg>